<svg xmlns="http://www.w3.org/2000/svg" xmlns:xlink="http://www.w3.org/1999/xlink" width="189" height="64" viewBox="0 0 189 64">
    <defs>
        <path id="a" d="M.136.128h151.12v63.205H.136z"/>
    </defs>
    <g fill="none" fill-rule="evenodd">
        <g transform="translate(37.517)">
            <mask id="b" fill="#fff">
                <use xlink:href="#a"/>
            </mask>
            <path fill="#8A8B8A" d="M110.021 39.115c-.936 0-3.745 2.088-6.263 2.088-2.23 0-3.31-.937-3.31-3.169 0-.572.07-1.152.144-1.725l2.515-14.743c-3.46-.494-6.984-.94-10.568-1.324l-3.101 18.006c-.218 1.153-.363 2.303-.363 3.455 0 5.83 5.253 7.272 10.221 7.272 3.024 0 5.612-.576 8.42-1.657 1.153-.504 1.872-.72 2.089-2.086.216-1.15.862-4.174.862-5.182 0-.435-.216-.935-.646-.935zm37.67-7.896c-9.126-3.265-19.359-6.046-30.44-8.238-.798 1.962-1.411 4.11-1.839 6.436a26.615 26.615 0 0 0-.431 4.751c0 3.382.791 6.765 3.023 9.43 3.237 3.812 7.917 4.392 12.594 4.392 4.106 0 9.719-.506 13.46-2.232 1.222-.578 1.728-.794 2.015-2.232.215-1.297.933-4.175.933-5.328 0-.5-.284-.721-.788-.721-.36 0-.65.221-.938.363-3.597 1.943-7.053 2.95-11.083 2.95-4.39 0-8.637-1.654-8.637-6.693 0-1.005.145-1.942.361-2.878h21.77zm-7.076-5.802l-.051-.016a208.357 208.357 0 0 0-8.852-2.532c-1.488-.39-3-.765-4.529-1.131.325-1.725.903-3.312 2.263-4.555 1.586-1.439 3.674-2.084 5.759-2.084 3.167 0 5.818 1.604 6.317 5.093.17 1.193-.396 4.372-.907 5.225zm-3.756-16.94c-9.334 0-15.515 4.169-18.934 11.231a272.91 272.91 0 0 0-14.537-2.484l.154-.903h9.861c.431 0 1.078-.43 1.148-.935.22-1.226.868-4.539.868-5.543 0-.431-.287-.719-.72-.719h-9.862c.216-1.369 1.368-7.198 1.368-8.202a.8.8 0 0 0-.79-.794h-8.927c-.502 0-1.007.431-1.077.936l-1.368 8.06h-4.104c-.433 0-1.078.43-1.153.937-.2 1.153-.79 4.16-.855 5.346a323.96 323.96 0 0 0-6.87-.557c-1.54-5.515-8.628-6.372-13.864-6.372-4.391 0-9.643.646-13.603 2.445-.935.43-1.295.647-1.51 1.73-.06.367-.16.874-.264 1.431l-9.094.273.738-4.296v-.218c0-.431-.286-.719-.72-.719h-8.203c-1.008 0-1.226 1.01-1.296 1.8-.72 0-1.081-.218-1.656-.577-1.15-.65-2.16-1.15-3.456-1.44a17.855 17.855 0 0 0-3.885-.43c-12.137 0-17.75 10.749-17.755 11.226 4.35-.713 8.804-1.343 13.365-1.874 2.964-.344 5.972-.646 9.016-.913 4.445-.385 8.97-.679 13.564-.885 2.997-.134 6.024-.229 9.074-.283a313.774 313.774 0 0 1 11.633-.005c1.641.029 3.278.059 4.904.112a323.686 323.686 0 0 1 24.49 1.674c3.584.387 7.109.83 10.568 1.327a272.88 272.88 0 0 1 14.144 2.4c11.081 2.191 21.314 4.97 30.44 8.238 2.325.829.23-.028 2.407.865l.365-1.596c.024-.069.062-.132.073-.203.357-2.164.72-4.25.72-6.411 0-9.065-5.615-13.671-14.397-13.671zM67.845 36.666c-.648 3.672-2.88 5.113-6.478 5.113-2.374 0-4.461-.937-4.461-3.598 0-3.67 2.374-4.97 5.396-6.189 2.232-.939 4.535-1.732 6.766-2.592l-1.223 7.266zm.204-18.1c1.34.249 2.53.83 2.53 2.194 0 .147-.073.364-.073.506-.359 1.655-1.15 1.87-2.661 2.301-5.398 1.585-11.084 2.738-15.978 5.686-3.312 2.018-5.252 5.257-5.901 9.072-.143.79-.217 1.58-.217 2.375 0 6.26 5.038 8.276 10.509 8.276 2.663 0 4.607-.29 7.125-1.367.79-.362 2.3-1.01 3.167-1.01h.287a4.266 4.266 0 0 0-.147 1.01c0 .504.219.79.794.79h8.203c.507 0 1.007-.43 1.083-.938l4.39-25.402c.142-.718.217-1.441.217-2.161 0-.23-.033-.434-.048-.652-4.36-.31-8.788-.54-13.28-.68zm-14.96 3.019c3.428-1.715 6.442-2.642 10.056-2.883a323.895 323.895 0 0 0-11.633.006c-.161.932-.292 1.826-.292 2.373 0 .504.144.863.72.863.431 0 .791-.143 1.15-.36zm-22.218 1.265c0 .43-.075.86-.146 1.225-.647 3.81-1.367 7.7-2.016 11.514-.718 3.885-3.525 5.037-7.125 5.037-4.893 0-7.268-2.807-7.268-7.557 0-1.008.144-2.016.29-3.024.715-4.111 2.268-7.611 5.252-9.501a289.734 289.734 0 0 0-13.805 1.94c-1.947 3.534-3.039 7.598-3.039 11.736 0 8.782 5.4 14.18 14.18 14.18 3.095 0 4.967-.577 7.774-1.801.576-.288 1.224-.574 1.872-.574h.071l-.216 1.222c-1.223 6.976-5.903 8.917-12.451 8.917-3.67 0-7.557-.722-10.724-2.735-.36-.216-.72-.572-1.223-.572-.72 0-1.08.503-1.225 1.15L.21 58.82c-.074.217-.074.431-.074.647 0 1.154.936 1.441 1.801 1.8 3.742 1.656 8.637 2.087 12.739 2.087 10.724 0 20.728-3.599 22.744-15.387 1.671-9.742 3.346-19.484 5.018-29.223-4.594.203-9.12.501-13.564.887 1.171.54 1.997 1.52 1.997 3.218z" mask="url(#b)"/>
        </g>
        <path fill="#D8232A" d="M86.414 55.983l-.112.616c-.007.06-.03.134-.104.134-.052 0-.096-.037-.141-.06-.312-.178-.617-.282-.98-.282-.328 0-.759.134-.759.528 0 .61 1.635.788 1.635 1.999 0 1.226-.996 1.746-2.096 1.746-.416 0-.84-.06-1.226-.23-.082-.038-.156-.052-.156-.156 0-.022 0-.045.008-.067l.103-.602c.008-.052.053-.119.112-.119.052 0 .09.037.126.067.29.215.773.304 1.13.304.386 0 .84-.118.84-.594 0-.23-.179-.327-.335-.453l-.787-.61a1.242 1.242 0 0 1-.498-1.003c0-.089.007-.178.022-.267.193-1.04 1.07-1.345 2.021-1.345.186 0 1.204.067 1.204.304 0 .03 0 .06-.007.09M90.182 57.714c-.015.067-.03.104-.104.104-.067 0-.12-.045-.171-.075-.208-.126-.483-.17-.72-.17-.84 0-1.287.632-1.287 1.426 0 .58.335.862.9.862.304 0 .594-.096.862-.237.03-.015.074-.045.104-.045.052 0 .074.03.074.082 0 .119-.074.446-.097.58-.014.096-.022.11-.111.155-.327.171-.936.268-1.308.268-.951 0-1.597-.431-1.597-1.442 0-.163.014-.327.044-.49.237-1.293.988-1.97 2.318-1.97.35 0 .743.03 1.07.165.067.03.135.036.135.126 0 .14-.083.505-.112.66M94.447 57.996l-.43 2.512a.118.118 0 0 1-.112.097h-.922c-.044 0-.09-.038-.081-.082v-.015l.371-2.17c.015-.074.023-.141.023-.216 0-.363-.201-.55-.565-.55-.342 0-.617.164-.677.514l-.416 2.422a.119.119 0 0 1-.111.097h-.922c-.044 0-.089-.038-.081-.082v-.015l.877-5.068a.118.118 0 0 1 .111-.097h.922c.044 0 .089.038.081.082v.015l-.275 1.575h.015c.06 0 .111-.03.164-.052.312-.148.587-.23.936-.23.631 0 1.115.32 1.115.996 0 .09-.008.178-.023.267M99.769 60.434c-.082.178-.104.23-.312.23h-.84c-.156 0-.208-.045-.216-.2l-.178-2.772-1.048 2.704c-.066.179-.096.268-.312.268h-.824c-.179 0-.186-.097-.209-.245-.096-.788-.208-1.583-.312-2.37-.03-.26-.067-.514-.097-.774-.007-.111-.03-.222-.03-.334 0-.104.075-.111.157-.111h.921c.045 0 .075.03.075.074l.155 2.957 1.034-2.764c.074-.208.119-.267.35-.267h.816c.045 0 .142 0 .178.022.053.037.075.253.075.312l.126 2.66 1.1-2.92c.015-.045.067-.074.112-.074h.698c.052 0 .141.007.141.074 0 .067-1.426 3.233-1.56 3.53M103.491 57.446a.875.875 0 0 0-.594.216c-.17.156-.224.364-.253.587h1.427c.015-.097.037-.193.037-.282 0-.364-.29-.52-.617-.52zm1.583 1.39a.118.118 0 0 1-.112.096h-2.43a1.308 1.308 0 0 0-.037.298c0 .52.44.69.892.69.416 0 .773-.103 1.145-.304.03-.014.059-.037.096-.037.052 0 .082.023.082.075 0 .118-.075.415-.097.55-.03.148-.081.17-.208.23-.386.178-.966.23-1.39.23-.483 0-.966-.06-1.3-.453-.23-.275-.312-.625-.312-.974 0-.163.015-.327.045-.49.222-1.219.928-1.984 2.214-1.984.907 0 1.486.475 1.486 1.412 0 .222-.037.438-.074.661zM107.051 56.332c-.327 0-.624-.127-.624-.498 0-.372.335-.49.654-.49.312 0 .61.148.61.497 0 .372-.32.49-.64.49zm.372.595l-.617 3.581a.118.118 0 0 1-.111.097h-.922c-.044 0-.09-.038-.081-.082v-.015l.616-3.581c.008-.053.067-.097.12-.097h.92c.045 0 .075.03.075.074v.023zM111.444 56.927l-.082.505c0 .022-.022.059-.037.074l-2.214 2.355h1.805c.044 0 .082.038.082.082 0 .104-.074.446-.097.565a.118.118 0 0 1-.111.097h-2.928a.082.082 0 0 1-.082-.082c0-.037.075-.587.119-.61l2.133-2.34h-1.575c-.045 0-.075-.03-.075-.075 0-.104.067-.445.09-.571.007-.053.074-.097.118-.097h2.78c.044 0 .074.03.074.074v.023M116.253 59.118a1.036 1.036 0 0 1-1.026-1.04c0-.565.453-1.04 1.026-1.04.565 0 1.018.483 1.018 1.04s-.453 1.04-1.018 1.04M124.748 55.983l-.111.616c-.008.06-.03.134-.105.134-.051 0-.096-.037-.14-.06-.313-.178-.618-.282-.982-.282-.327 0-.758.134-.758.528 0 .61 1.635.788 1.635 1.999 0 1.226-.996 1.746-2.095 1.746-.417 0-.84-.06-1.227-.23-.081-.038-.156-.052-.156-.156 0-.022 0-.045.008-.067l.104-.602c.007-.052.052-.119.111-.119.052 0 .09.037.127.067.29.215.773.304 1.13.304.386 0 .838-.118.838-.594 0-.23-.178-.327-.333-.453l-.788-.61a1.244 1.244 0 0 1-.498-1.003c0-.089.008-.178.022-.267.193-1.04 1.07-1.345 2.021-1.345.186 0 1.205.067 1.205.304 0 .03 0 .06-.008.09M129.133 56.927l-.617 3.581a.119.119 0 0 1-.111.097h-.848c-.06 0-.081-.03-.081-.082a.48.48 0 0 1 .014-.104h-.014c-.127 0-.26.067-.372.111-.245.09-.513.134-.773.134-.66 0-1.137-.297-1.137-1.003 0-.111.015-.216.03-.32l.416-2.414c.007-.053.067-.097.12-.097h.92c.045 0 .075.03.075.074v.023l-.365 2.132a1.398 1.398 0 0 0-.022.245c0 .364.178.557.55.557.38 0 .625-.185.691-.564l.41-2.37c.006-.053.066-.097.118-.097h.922c.044 0 .074.03.074.074v.023M131.118 56.332c-.327 0-.624-.127-.624-.498 0-.372.334-.49.654-.49.311 0 .609.148.609.497 0 .372-.32.49-.64.49zm.371.595l-.616 3.581a.119.119 0 0 1-.112.097h-.921c-.045 0-.09-.038-.082-.082v-.015l.617-3.581c.007-.053.066-.097.119-.097h.921c.044 0 .074.03.074.074v.023zM134.946 57.654c-.008.06-.038.142-.113.142-.036 0-.073-.023-.103-.045-.26-.163-.468-.253-.78-.253-.216 0-.52.067-.52.335 0 .349 1.3.505 1.3 1.42 0 .89-.803 1.411-1.62 1.411-.327 0-.699-.074-.996-.208-.089-.037-.215-.074-.215-.193 0-.12.059-.364.081-.49.015-.06.045-.127.119-.127.045 0 .104.037.142.06.274.163.594.223.913.223.209 0 .484-.068.484-.335 0-.394-1.294-.513-1.294-1.39 0-.074.008-.156.023-.23.156-.832.832-1.211 1.634-1.211.186 0 1.04.067 1.04.32 0 .14-.073.423-.095.571M138.342 57.654c-.008.06-.038.142-.112.142-.037 0-.074-.023-.104-.045-.26-.163-.468-.253-.78-.253-.215 0-.52.067-.52.335 0 .349 1.3.505 1.3 1.42 0 .89-.802 1.411-1.62 1.411-.327 0-.699-.074-.995-.208-.09-.037-.216-.074-.216-.193 0-.12.06-.364.082-.49.015-.06.044-.127.119-.127.044 0 .104.037.14.06.276.163.595.223.915.223.208 0 .483-.068.483-.335 0-.394-1.293-.513-1.293-1.39 0-.074.007-.156.022-.23.157-.832.833-1.211 1.635-1.211.186 0 1.04.067 1.04.32 0 .14-.074.423-.096.571M140.958 57.446a.878.878 0 0 0-.594.216c-.17.156-.223.364-.252.587h1.426c.015-.097.038-.193.038-.282 0-.364-.29-.52-.618-.52zm1.583 1.39a.119.119 0 0 1-.111.096H140a1.288 1.288 0 0 0-.037.298c0 .52.438.69.892.69a2.31 2.31 0 0 0 1.144-.304c.03-.014.06-.037.096-.037.052 0 .082.023.082.075 0 .118-.074.415-.096.55-.03.148-.082.17-.208.23-.387.178-.966.23-1.39.23-.483 0-.966-.06-1.3-.453-.23-.275-.312-.625-.312-.974 0-.163.014-.327.044-.49.223-1.219.93-1.984 2.215-1.984.906 0 1.486.475 1.486 1.412 0 .222-.037.438-.075.661zM147.544 59.118a1.036 1.036 0 0 1-1.026-1.04c0-.565.454-1.04 1.026-1.04.564 0 1.018.483 1.018 1.04s-.454 1.04-1.018 1.04M156.039 55.983l-.112.616c-.007.06-.03.134-.104.134-.052 0-.096-.037-.141-.06-.312-.178-.617-.282-.981-.282-.327 0-.758.134-.758.528 0 .61 1.635.788 1.635 1.999 0 1.226-.996 1.746-2.096 1.746-.416 0-.839-.06-1.226-.23-.082-.038-.156-.052-.156-.156 0-.022 0-.045.008-.067l.104-.602c.007-.052.052-.119.111-.119.052 0 .09.037.126.067.29.215.773.304 1.13.304.386 0 .84-.118.84-.594 0-.23-.178-.327-.335-.453l-.787-.61a1.242 1.242 0 0 1-.499-1.003c0-.089.008-.178.023-.267.193-1.04 1.07-1.345 2.022-1.345.185 0 1.203.067 1.203.304 0 .03 0 .06-.007.09M160.179 57.03l-1.643 3.27c-.097.186-.126.364-.379.364h-.818c-.23 0-.215-.156-.244-.334l-.506-3.337v-.052c0-.09.052-.111.126-.111h.945c.044 0 .074.022.081.067l.282 2.846 1.286-2.846c.015-.038.067-.067.104-.067h.72c.03 0 .105.007.105.044s-.045.126-.06.156M161.784 56.332c-.327 0-.624-.127-.624-.498 0-.372.335-.49.654-.49.313 0 .61.148.61.497 0 .372-.32.49-.64.49zm.372.595l-.617 3.581a.118.118 0 0 1-.111.097h-.922c-.044 0-.089-.038-.081-.082v-.015l.616-3.581c.008-.053.067-.097.119-.097h.922c.045 0 .074.03.074.074v.023zM166.177 56.927l-.082.505c0 .022-.022.059-.037.074l-2.214 2.355h1.805c.045 0 .082.038.082.082 0 .104-.074.446-.097.565a.118.118 0 0 1-.111.097h-2.928a.082.082 0 0 1-.082-.082c0-.037.075-.587.119-.61l2.133-2.34h-1.575c-.045 0-.075-.03-.075-.075 0-.104.067-.445.09-.571.007-.053.074-.097.118-.097h2.78c.044 0 .074.03.074.074v.023M169.997 56.927l-.082.505c0 .022-.022.059-.037.074l-2.214 2.355h1.805c.045 0 .082.038.082.082 0 .104-.074.446-.097.565a.118.118 0 0 1-.111.097h-2.928a.082.082 0 0 1-.082-.082c0-.037.074-.587.119-.61l2.133-2.34h-1.575c-.045 0-.075-.03-.075-.075 0-.104.067-.445.09-.571.007-.053.074-.097.118-.097h2.78c.044 0 .074.03.074.074v.023M172.472 57.446a.874.874 0 0 0-.594.216c-.171.156-.224.364-.253.587h1.426c.016-.097.038-.193.038-.282 0-.364-.29-.52-.617-.52zm1.583 1.39a.119.119 0 0 1-.112.096h-2.43a1.328 1.328 0 0 0-.037.298c0 .52.439.69.892.69.416 0 .773-.103 1.145-.304.03-.014.06-.037.096-.037.052 0 .082.023.082.075 0 .118-.075.415-.097.55-.03.148-.081.17-.208.23-.387.178-.966.23-1.39.23-.483 0-.966-.06-1.3-.453-.23-.275-.312-.625-.312-.974 0-.163.015-.327.045-.49.222-1.219.928-1.984 2.214-1.984.907 0 1.486.475 1.486 1.412 0 .222-.037.438-.074.661zM177.63 57.603c-.015.074-.044.156-.134.156-.03 0-.052-.008-.081-.016a2.145 2.145 0 0 0-.573-.081c-.423 0-.586.14-.661.557l-.394 2.289a.118.118 0 0 1-.112.097h-.92c-.045 0-.09-.038-.083-.082v-.015l.617-3.581c.008-.053.067-.097.119-.097h.848c.06 0 .074.03.074.081 0 .045-.008.09-.015.134h.022c.097 0 .149-.022.238-.06.32-.126.535-.155.877-.155.118 0 .282-.008.282.156 0 .14-.075.46-.104.617M179.429 58.91c-.313.127-.559.26-.559.64 0 .274.216.37.462.37.37 0 .602-.148.668-.527l.127-.75c-.23.089-.468.17-.698.267zm1.946-1.025l-.454 2.623a.118.118 0 0 1-.11.097h-.848c-.06 0-.082-.03-.082-.082 0-.037.008-.075.016-.104h-.03c-.09 0-.246.067-.327.104-.26.111-.461.141-.736.141-.565 0-1.085-.208-1.085-.854 0-.082.008-.164.022-.246.067-.394.268-.728.61-.936.505-.305 1.092-.423 1.65-.587.155-.045.237-.067.274-.238 0-.015.008-.037.008-.052 0-.253-.394-.245-.565-.245-.468 0-.825.097-1.24.305a.229.229 0 0 1-.12.037c-.06 0-.074-.037-.074-.09 0-.126.067-.43.089-.564.022-.112.06-.134.156-.179.409-.185.951-.252 1.405-.252.609 0 1.463.111 1.463.899 0 .074-.007.149-.022.223zM22.129 40.141h2.85V37.29h2.581v2.851h2.852v2.581H27.56v2.85h-2.58v-2.85h-2.851v-2.58zm-6.512.653c-1.826 0-3.472-.564-4.138-2.03A237.762 237.762 0 0 0 .281 42.058c1.12 4.428 5.51 5.934 10.227 5.934 2.663 0 4.607-.29 7.126-1.366.791-.362 2.303-1.01 3.169-1.01h.286c-.071.29-.145.648-.145 1.01 0 .504.216.789.79.789h8.208c.503 0 1.005-.433 1.078-.937l2.183-12.624c-3.832.72-7.57 1.496-11.211 2.32-.756 3.306-2.942 4.62-6.375 4.62zM.217 37.34A13.171 13.171 0 0 0 0 39.717c0 .234.02.45.035.671a237.533 237.533 0 0 1 11.125-3.263c.032-3.613 2.392-4.906 5.393-6.117 2.232-.94 4.536-1.731 6.767-2.594l-1.008 5.982a319.57 319.57 0 0 1 11.192-2.289l1.568-9.067c-12.125 2.412-23.224 5.53-32.971 9.215C1.16 33.764.532 35.484.218 37.34zM21.45 8.48c-4.391 0-9.645.647-13.605 2.446-.935.43-1.295.649-1.51 1.73-.216 1.29-.864 4.241-.864 5.47 0 .503.143.862.72.862.432 0 .792-.144 1.15-.359 4.033-2.018 7.487-2.955 12.02-2.955 1.658 0 5.47-.068 5.47 2.376 0 .147-.07.363-.07.505-.36 1.656-1.154 1.87-2.665 2.3-5.396 1.586-11.084 2.738-15.977 5.689a12.16 12.16 0 0 0-1.918 1.46 12.081 12.081 0 0 0-2.1 2.523c9.748-3.683 20.847-6.8 32.972-9.213l.302-1.746.038-.22c.142-.719.217-1.442.217-2.16 0-7.629-8.279-8.708-14.18-8.708z"/>
    </g>
</svg>
