<?xml version="1.0" encoding="UTF-8" standalone="no"?>
<svg
   xmlns:dc="http://purl.org/dc/elements/1.1/"
   xmlns:cc="http://creativecommons.org/ns#"
   xmlns:rdf="http://www.w3.org/1999/02/22-rdf-syntax-ns#"
   xmlns="http://www.w3.org/2000/svg"
   viewBox="0 0 666.70001 223.3"
   height="223.3"
   width="666.70001"
   xml:space="preserve"
   version="1.1"
   id="svg2"><metadata
     id="metadata8"><rdf:RDF><cc:Work
         rdf:about=""><dc:format>image/svg+xml</dc:format><dc:type
           rdf:resource="http://purl.org/dc/dcmitype/StillImage" /></cc:Work></rdf:RDF></metadata><defs
     id="defs6" /><g
     transform="matrix(1.25,0,0,-1.25,0,223.3)"
     id="g10"><g
       transform="scale(0.1,0.1)"
       id="g12"><path
         id="path14"
         style="fill:#918f90;fill-opacity:1;fill-rule:nonzero;stroke:none"
         d="m 4168.54,684.852 c -26.47,0 -105.83,-58.993 -176.96,-58.993 -63.03,0 -93.52,26.473 -93.52,89.52 0,16.18 1.98,32.57 4.06,48.742 l 71.07,416.549 c -97.74,13.96 -197.34,26.54 -298.61,37.4 l -87.61,-508.73 c -6.14,-32.578 -10.25,-65.07 -10.25,-97.621 0,-164.739 148.41,-205.449 288.8,-205.449 85.43,0 158.56,16.281 237.9,46.812 32.57,14.227 52.88,20.348 59,58.949 6.12,32.5 24.37,117.93 24.37,146.41 0,12.289 -6.12,26.411 -18.25,26.411 z M 5232.88,907.949 C 4975,1000.2 4685.9,1078.75 4372.8,1140.69 c -22.53,-55.44 -39.86,-116.12 -51.95,-181.838 -8.12,-44.868 -12.18,-89.563 -12.18,-134.239 0,-95.562 22.35,-191.133 85.42,-266.402 91.46,-107.719 223.69,-124.109 355.81,-124.109 116.02,0 274.61,14.296 380.3,63.058 34.55,16.32 48.82,22.43 56.95,63.059 6.08,36.64 26.36,117.953 26.36,150.531 0,14.129 -8.03,20.379 -22.26,20.379 -10.16,0 -18.37,-6.25 -26.5,-10.25 -101.63,-54.899 -199.28,-83.367 -313.14,-83.367 -124.07,0 -244.05,46.75 -244.05,189.113 0,28.398 4.11,54.852 10.22,81.324 l 615.1,0 z m -199.96,163.931 -1.44,0.43 c -81,25.1 -164.24,49.04 -250.08,71.55 -42.06,11 -84.76,21.61 -127.97,31.96 9.18,48.72 25.51,93.58 63.93,128.68 44.81,40.66 103.81,58.88 162.71,58.88 89.5,0 164.39,-45.3 178.49,-143.88 4.81,-33.72 -11.18,-123.53 -25.64,-147.62 z m -106.1,478.59 c -263.74,0 -438.36,-117.77 -534.96,-317.3 -132.8,26.46 -269.9,49.96 -410.75,70.18 l 4.35,25.52 278.63,0 c 12.18,0 30.45,12.15 32.42,26.42 6.23,34.63 24.53,128.24 24.53,156.6 0,12.19 -8.09,20.32 -20.36,20.32 l -278.62,0 c 6.11,38.68 38.66,203.38 38.66,231.75 0,12.29 -10.2,22.43 -22.34,22.43 l -252.2,0 c -14.19,0 -28.45,-12.19 -30.45,-26.46 l -38.65,-227.72 -115.94,0 c -12.23,0 -30.46,-12.15 -32.59,-26.46 -5.67,-32.58 -22.31,-117.56 -24.16,-151.07 -64.13,5.89 -128.8,11.15 -194.11,15.75 -43.48,155.82 -243.76,180.04 -391.69,180.04 -124.07,0 -272.45,-18.26 -384.34,-69.1 -26.42,-12.15 -36.59,-18.26 -42.69,-48.85 -1.69,-10.4 -4.48,-24.7 -7.45,-40.45 l -256.94,-7.7 0,0 20.86,121.38 0,6.14 c 0,12.19 -8.09,20.32 -20.32,20.32 l -231.8,0 c -28.46,0 -34.62,-28.51 -36.6,-50.84 -20.33,0 -30.55,6.15 -46.8,16.29 -32.51,18.34 -61.03,32.47 -97.65,40.66 -36.52,8.13 -73.14,12.15 -109.76,12.15 -342.92,0 -501.49,-303.68 -501.64,-317.16 122.89,20.14 248.74,37.96 377.6,52.95 83.74,9.71 168.74,18.24 254.74,25.79 125.59,10.89 253.44,19.18 383.25,25.02 84.68,3.78 170.18,6.47 256.38,7.98 56.45,0.97 113.15,1.61 170.24,1.58 53.07,0 105.79,-0.5 158.43,-1.44 46.37,-0.8 92.6,-1.65 138.56,-3.17 126.92,-3.88 252.04,-10.35 375.21,-19.08 107.15,-7.66 212.81,-17.16 316.71,-28.23 101.27,-10.92 200.87,-23.44 298.61,-37.46 136.91,-19.62 270.33,-42.28 399.61,-67.8 313.1,-61.91 602.2,-140.43 860.08,-232.759 65.68,-23.437 6.48,0.793 67.98,-24.445 l 10.33,45.086 c 0.67,1.938 1.75,3.742 2.04,5.746 10.1,61.122 20.36,120.082 20.36,181.132 0,256.12 -158.65,386.26 -406.77,386.26 z M 2976.89,754.07 c -18.3,-103.761 -81.39,-144.461 -183.02,-144.461 -67.09,0 -126.06,26.473 -126.06,101.661 0,103.714 67.08,140.441 152.48,174.847 63.06,26.531 128.11,48.93 191.15,73.231 L 2976.89,754.07 Z m 5.77,511.38 c 37.84,-7.01 71.49,-23.41 71.49,-61.99 0,-4.12 -2.07,-10.27 -2.07,-14.27 -10.14,-46.77 -32.49,-52.84 -75.19,-65.03 -152.52,-44.77 -313.18,-77.34 -451.44,-160.637 -93.57,-57.019 -148.4,-148.539 -166.74,-256.332 -4.04,-22.339 -6.12,-44.652 -6.12,-67.089 0,-176.883 142.34,-233.832 296.92,-233.832 75.24,0 130.16,8.191 201.32,38.621 22.33,10.211 65,28.539 89.48,28.539 l 8.09,0 c -2.03,-8.16 -4.15,-18.328 -4.15,-28.539 0,-14.243 6.19,-22.34 22.43,-22.34 l 231.77,0 c 14.33,0 28.45,12.191 30.6,26.508 l 124.03,717.711 c 4.01,20.3 6.13,40.72 6.13,61.07 0,6.48 -0.91,12.26 -1.34,18.41 -123.17,8.77 -248.29,15.24 -375.21,19.2 z m -422.68,-85.27 c 96.84,48.45 182.02,74.62 284.12,81.45 -52.64,0.87 -105.36,1.37 -158.43,1.37 -57.09,0.07 -113.79,-0.57 -170.24,-1.54 -4.57,-26.35 -8.26,-51.59 -8.26,-67.05 0,-14.23 4.06,-24.38 20.33,-24.38 12.2,0 22.36,4.02 32.48,10.15 z m -627.76,-35.75 c 0,-12.15 -2.11,-24.3 -4.12,-34.62 -18.29,-107.67 -38.61,-217.54 -56.95,-325.298 -20.28,-109.782 -99.59,-142.321 -201.32,-142.321 -138.24,0 -205.36,79.297 -205.36,213.516 0,28.477 4.09,56.941 8.19,85.418 20.23,116.165 64.1,215.055 148.4,268.455 -133.17,-15.46 -263.27,-33.87 -390.04,-54.79 -55,-99.88 -85.85,-214.704 -85.85,-331.622 0,-248.109 152.58,-400.617 400.62,-400.617 87.46,0 140.34,16.289 219.66,50.879 16.27,8.121 34.57,16.211 52.89,16.211 l 2.01,0 -6.1,-34.539 C 1779.69,258 1647.46,203.172 1462.44,203.172 c -103.67,0 -213.51,20.387 -303,77.269 -10.17,6.11 -20.34,16.168 -34.55,16.168 -20.32,0 -30.48,-14.218 -34.61,-32.5 l -24.34,-136 c -2.11,-6.148 -2.11,-12.187 -2.11,-18.3 0,-32.5785 26.45,-40.7074 50.91,-50.8285 C 1220.46,12.1719 1358.77,0 1474.65,0 c 303,0 585.65,101.68 642.61,434.742 47.22,275.246 94.54,550.5 141.79,825.678 -129.81,-5.76 -257.66,-14.17 -383.25,-25.06 33.09,-15.28 56.42,-42.97 56.42,-90.93" /><path
         id="path16"
         style="fill:#ed1c24;fill-opacity:1;fill-rule:nonzero;stroke:none"
         d="m 2441.53,208.27 -3.16,-17.43 c -0.2,-1.68 -0.84,-3.77 -2.93,-3.77 -1.47,0 -2.73,1.051 -3.99,1.68 -8.82,5.039 -17.43,7.969 -27.71,7.969 -9.24,0 -21.42,-3.77 -21.42,-14.899 0,-17.218 46.19,-22.261 46.19,-56.48 0,-34.6408 -28.13,-49.34 -59.21,-49.34 -11.76,0 -23.72,1.6797 -34.64,6.5 -2.31,1.0586 -4.41,1.4805 -4.41,4.4219 0,0.6172 0,1.2578 0.21,1.8867 l 2.93,17.0004 c 0.22,1.48 1.48,3.363 3.16,3.363 1.47,0 2.52,-1.043 3.56,-1.883 8.2,-6.098 21.84,-8.6093 31.92,-8.6093 10.91,0 23.73,3.3513 23.73,16.7893 0,6.511 -5.04,9.242 -9.46,12.812 l -22.24,17.211 c -9.04,7.149 -14.07,16.797 -14.07,28.348 0,2.519 0.2,5.039 0.63,7.558 5.45,29.391 30.23,38 57.11,38 5.24,0 34,-1.886 34,-8.609 0,-0.84 0,-1.68 -0.2,-2.519" /><path
         id="path18"
         style="fill:#ed1c24;fill-opacity:1;fill-rule:nonzero;stroke:none"
         d="m 2547.99,159.359 c -0.42,-1.898 -0.84,-2.949 -2.94,-2.949 -1.89,0 -3.36,1.27 -4.82,2.11 -5.88,3.562 -13.65,4.82 -20.37,4.82 -23.73,0 -36.33,-17.848 -36.33,-40.309 0,-16.383 9.45,-24.3513 25.41,-24.3513 8.61,0 16.8,2.7303 24.36,6.7113 0.84,0.418 2.1,1.257 2.94,1.257 1.47,0 2.09,-0.839 2.09,-2.308 0,-3.36 -2.09,-12.5978 -2.73,-16.3712 -0.41,-2.7305 -0.62,-3.1485 -3.14,-4.4102 C 2523.22,78.7305 2506,76 2495.5,76 c -26.87,0 -45.13,12.1797 -45.13,40.73 0,4.622 0.41,9.239 1.25,13.86 6.71,36.531 27.93,55.64 65.5,55.64 9.88,0 21,-0.839 30.24,-4.628 1.89,-0.84 3.79,-1.043 3.79,-3.563 0,-3.988 -2.32,-14.277 -3.16,-18.68" /><path
         id="path20"
         style="fill:#ed1c24;fill-opacity:1;fill-rule:nonzero;stroke:none"
         d="m 2668.51,151.371 -12.18,-70.9608 c -0.2,-1.4688 -1.68,-2.7305 -3.15,-2.7305 l -26.04,0 c -1.25,0 -2.52,1.0508 -2.3,2.3008 l 0,0.4297 10.5,61.3088 c 0.42,2.09 0.63,3.992 0.63,6.09 0,10.281 -5.67,15.531 -15.96,15.531 -9.66,0 -17.43,-4.621 -19.11,-14.488 l -11.75,-68.4418 c -0.21,-1.4688 -1.68,-2.7305 -3.16,-2.7305 l -26.03,0 c -1.25,0 -2.52,1.0508 -2.31,2.3008 l 0,0.4297 24.78,143.1918 c 0.2,1.468 1.68,2.73 3.15,2.73 l 26.04,0 c 1.25,0 2.52,-1.051 2.3,-2.301 l 0,-0.429 -7.77,-44.512 0.43,0 c 1.68,0 3.14,0.84 4.61,1.469 8.82,4.203 16.59,6.511 26.46,6.511 17.84,0 31.49,-9.031 31.49,-28.14 0,-2.52 -0.21,-5.039 -0.63,-7.559" /><path
         id="path22"
         style="fill:#ed1c24;fill-opacity:1;fill-rule:nonzero;stroke:none"
         d="m 2818.86,82.5 c -2.3,-5.0391 -2.93,-6.5 -8.81,-6.5 l -23.73,0 c -4.41,0 -5.88,1.2617 -6.09,5.6602 l -5.04,78.3198 -29.61,-76.4214 C 2743.71,78.5195 2742.87,76 2736.77,76 l -23.3,0 c -5.04,0 -5.25,2.7305 -5.88,6.9297 -2.73,22.2503 -5.88,44.7183 -8.83,66.9803 -0.84,7.34 -1.89,14.488 -2.73,21.832 -0.2,3.149 -0.84,6.297 -0.84,9.449 0,2.93 2.11,3.149 4.41,3.149 l 26.04,0 c 1.27,0 2.11,-0.84 2.11,-2.098 l 4.39,-83.5623 29.2,78.1013 c 2.09,5.879 3.36,7.559 9.87,7.559 l 23.08,0 c 1.27,0 4.01,0 5.04,-0.629 1.49,-1.051 2.11,-7.141 2.11,-8.82 l 3.57,-75.1605 31.08,82.5115 c 0.41,1.258 1.87,2.098 3.14,2.098 l 19.73,0 c 1.48,0 4,-0.219 4,-2.098 0,-1.89 -40.31,-91.3436 -44.1,-99.742" /><path
         id="path24"
         style="fill:#ed1c24;fill-opacity:1;fill-rule:nonzero;stroke:none"
         d="m 2924.04,166.922 c -6.1,0 -12.19,-1.902 -16.8,-6.102 -4.82,-4.41 -6.31,-10.289 -7.15,-16.578 l 40.32,0 c 0.42,2.727 1.05,5.449 1.05,7.969 0,10.289 -8.18,14.711 -17.42,14.711 z m 44.72,-39.274 c -0.21,-1.468 -1.68,-2.718 -3.16,-2.718 l -68.65,0 c -0.63,-2.739 -1.06,-5.469 -1.06,-8.399 0,-14.711 12.41,-19.531 25.2,-19.531 11.76,0 21.83,2.9297 32.34,8.609 0.84,0.411 1.68,1.039 2.74,1.039 1.46,0 2.3,-0.628 2.3,-2.097 0,-3.36 -2.11,-11.7502 -2.73,-15.5315 -0.84,-4.1992 -2.31,-4.8398 -5.88,-6.5195 -10.92,-5.0391 -27.29,-6.5 -39.26,-6.5 -13.65,0 -27.3,1.6797 -36.74,12.8086 -6.52,7.7734 -8.83,17.6404 -8.83,27.5004 0,4.621 0.43,9.242 1.27,13.863 6.29,34.43 26.23,56.058 62.56,56.058 25.63,0 41.99,-13.429 41.99,-39.898 0,-6.293 -1.05,-12.383 -2.09,-18.684" /><path
         id="path26"
         style="fill:#ed1c24;fill-opacity:1;fill-rule:nonzero;stroke:none"
         d="m 3024.62,198.398 c -9.23,0 -17.63,3.582 -17.63,14.071 0,10.5 9.45,13.863 18.47,13.863 8.83,0 17.23,-4.203 17.23,-14.062 0,-10.508 -9.04,-13.872 -18.07,-13.872 z m 10.51,-16.796 -17.44,-101.1918 c -0.19,-1.4688 -1.68,-2.7305 -3.14,-2.7305 l -26.04,0 c -1.25,0 -2.52,1.0508 -2.3,2.3008 l 0,0.4297 17.42,101.1918 c 0.21,1.48 1.89,2.738 3.36,2.738 l 26.03,0 c 1.27,0 2.11,-0.84 2.11,-2.098 0,-0.211 0,-0.422 0,-0.64" /><path
         id="path28"
         style="fill:#ed1c24;fill-opacity:1;fill-rule:nonzero;stroke:none"
         d="m 3148.73,181.602 -2.31,-14.27 c 0,-0.633 -0.62,-1.684 -1.05,-2.094 l -62.56,-66.5583 51.01,0 c 1.25,0 2.31,-1.0586 2.31,-2.3086 0,-2.9492 -2.09,-12.6016 -2.74,-15.9609 -0.19,-1.4688 -1.68,-2.7305 -3.14,-2.7305 l -82.72,0 c -1.27,0 -2.32,1.0508 -2.32,2.3008 0,1.0586 2.11,16.6015 3.36,17.2304 l 60.27,66.1291 -44.51,0 c -1.27,0 -2.11,0.84 -2.11,2.101 0,2.938 1.9,12.598 2.52,16.161 0.22,1.48 2.11,2.738 3.36,2.738 l 78.54,0 c 1.25,0 2.09,-0.84 2.09,-2.098 0,-0.211 0,-0.422 0,-0.64" /><path
         id="path30"
         style="fill:#ed1c24;fill-opacity:1;fill-rule:nonzero;stroke:none"
         d="m 3284.6,119.672 c -16.17,0 -28.98,13.437 -28.98,29.398 0,15.95 12.81,29.391 28.98,29.391 15.96,0 28.77,-13.652 28.77,-29.391 0,-15.75 -12.81,-29.398 -28.77,-29.398" /><path
         id="path32"
         style="fill:#ed1c24;fill-opacity:1;fill-rule:nonzero;stroke:none"
         d="m 3524.62,208.27 -3.14,-17.43 c -0.22,-1.68 -0.84,-3.77 -2.95,-3.77 -1.46,0 -2.73,1.051 -3.98,1.68 -8.83,5.039 -17.43,7.969 -27.72,7.969 -9.24,0 -21.42,-3.77 -21.42,-14.899 0,-17.218 46.19,-22.261 46.19,-56.48 0,-34.6408 -28.13,-49.34 -59.2,-49.34 -11.76,0 -23.73,1.6797 -34.65,6.5 -2.31,1.0586 -4.42,1.4805 -4.42,4.4219 0,0.6172 0,1.2578 0.22,1.8867 l 2.95,17.0004 c 0.19,1.48 1.46,3.363 3.14,3.363 1.47,0 2.52,-1.043 3.58,-1.883 8.18,-6.098 21.83,-8.6093 31.91,-8.6093 10.92,0 23.71,3.3513 23.71,16.7893 0,6.511 -5.04,9.242 -9.43,12.812 l -22.27,17.211 c -9.02,7.149 -14.06,16.797 -14.06,28.348 0,2.519 0.22,5.039 0.63,7.558 5.46,29.391 30.23,38 57.11,38 5.25,0 34.02,-1.886 34.02,-8.609 0,-0.84 0,-1.68 -0.22,-2.519" /><path
         id="path34"
         style="fill:#ed1c24;fill-opacity:1;fill-rule:nonzero;stroke:none"
         d="M 3648.51,181.602 3631.09,80.4102 c -0.22,-1.4688 -1.68,-2.7305 -3.15,-2.7305 l -23.94,0 c -1.68,0 -2.31,0.8398 -2.31,2.3008 0,1.0586 0.22,2.1093 0.41,2.9492 l -0.41,0 c -3.57,0 -7.34,-1.8906 -10.5,-3.1484 C 3584.27,77.2617 3576.71,76 3569.35,76 c -18.67,0 -32.11,8.3984 -32.11,28.34 0,3.148 0.41,6.09 0.84,9.031 l 11.76,68.231 c 0.19,1.48 1.87,2.738 3.36,2.738 l 26.03,0 c 1.25,0 2.09,-0.84 2.09,-2.098 0,-0.211 0,-0.422 0,-0.64 l -10.29,-60.25 c -0.41,-2.301 -0.62,-4.622 -0.62,-6.93 0,-10.293 5.03,-15.7423 15.54,-15.7423 10.71,0 17.64,5.2503 19.51,15.9493 l 11.57,66.973 c 0.19,1.48 1.87,2.738 3.36,2.738 l 26.03,0 c 1.25,0 2.09,-0.84 2.09,-2.098 0,-0.211 0,-0.422 0,-0.64" /><path
         id="path36"
         style="fill:#ed1c24;fill-opacity:1;fill-rule:nonzero;stroke:none"
         d="m 3704.6,198.398 c -9.23,0 -17.63,3.582 -17.63,14.071 0,10.5 9.43,13.863 18.47,13.863 8.81,0 17.21,-4.203 17.21,-14.062 0,-10.508 -9.02,-13.872 -18.05,-13.872 z m 10.49,-16.796 -17.42,-101.1918 c -0.21,-1.4688 -1.68,-2.7305 -3.14,-2.7305 l -26.04,0 c -1.27,0 -2.52,1.0508 -2.32,2.3008 l 0,0.4297 17.44,101.1918 c 0.19,1.48 1.87,2.738 3.36,2.738 l 26.03,0 c 1.25,0 2.09,-0.84 2.09,-2.098 0,-0.211 0,-0.422 0,-0.64" /><path
         id="path38"
         style="fill:#ed1c24;fill-opacity:1;fill-rule:nonzero;stroke:none"
         d="m 3812.75,161.039 c -0.22,-1.68 -1.06,-4 -3.17,-4 -1.03,0 -2.08,0.641 -2.92,1.262 -7.35,4.621 -13.23,7.14 -22.06,7.14 -6.09,0 -14.68,-1.882 -14.68,-9.441 0,-9.871 36.74,-14.281 36.74,-40.109 0,-25.1918 -22.68,-39.891 -45.79,-39.891 -9.23,0 -19.72,2.1016 -28.12,5.8789 -2.52,1.0508 -6.09,2.1016 -6.09,5.4609 0,3.3594 1.67,10.2813 2.3,13.8512 0.43,1.68 1.27,3.579 3.36,3.579 1.27,0 2.95,-1.059 4,-1.68 7.76,-4.6291 16.8,-6.3087 25.82,-6.3087 5.88,0 13.66,1.8984 13.66,9.4487 0,11.141 -36.55,14.5 -36.55,39.262 0,2.11 0.22,4.418 0.63,6.52 4.41,23.508 23.51,34.218 46.19,34.218 5.25,0 29.39,-1.89 29.39,-9.031 0,-3.988 -2.09,-11.961 -2.71,-16.16" /><path
         id="path40"
         style="fill:#ed1c24;fill-opacity:1;fill-rule:nonzero;stroke:none"
         d="m 3908.71,161.039 c -0.22,-1.68 -1.06,-4 -3.15,-4 -1.05,0 -2.11,0.641 -2.95,1.262 -7.34,4.621 -13.22,7.14 -22.03,7.14 -6.09,0 -14.71,-1.882 -14.71,-9.441 0,-9.871 36.74,-14.281 36.74,-40.109 0,-25.1918 -22.67,-39.891 -45.76,-39.891 -9.24,0 -19.75,2.1016 -28.14,5.8789 -2.52,1.0508 -6.08,2.1016 -6.08,5.4609 0,3.3594 1.68,10.2813 2.31,13.8512 0.41,1.68 1.25,3.579 3.36,3.579 1.25,0 2.93,-1.059 3.98,-1.68 7.77,-4.6291 16.8,-6.3087 25.82,-6.3087 5.88,0 13.65,1.8984 13.65,9.4487 0,11.141 -36.52,14.5 -36.52,39.262 0,2.11 0.19,4.418 0.62,6.52 4.42,23.508 23.52,34.218 46.2,34.218 5.25,0 29.39,-1.89 29.39,-9.031 0,-3.988 -2.11,-11.961 -2.73,-16.16" /><path
         id="path42"
         style="fill:#ed1c24;fill-opacity:1;fill-rule:nonzero;stroke:none"
         d="m 3982.63,166.922 c -6.07,0 -12.17,-1.902 -16.8,-6.102 -4.82,-4.41 -6.28,-10.289 -7.12,-16.578 l 40.31,0 c 0.41,2.727 1.05,5.449 1.05,7.969 0,10.289 -8.2,14.711 -17.44,14.711 z m 44.73,-39.274 c -0.22,-1.468 -1.68,-2.718 -3.15,-2.718 l -68.65,0 c -0.64,-2.739 -1.05,-5.469 -1.05,-8.399 0,-14.711 12.38,-19.531 25.19,-19.531 11.76,0 21.84,2.9297 32.33,8.609 0.84,0.411 1.68,1.039 2.73,1.039 1.47,0 2.31,-0.628 2.31,-2.097 0,-3.36 -2.09,-11.7502 -2.72,-15.5315 -0.84,-4.1992 -2.32,-4.8398 -5.88,-6.5195 -10.92,-5.0391 -27.3,-6.5 -39.28,-6.5 -13.63,0 -27.28,1.6797 -36.73,12.8086 -6.51,7.7734 -8.81,17.6404 -8.81,27.5004 0,4.621 0.41,9.242 1.25,13.863 6.31,34.43 26.25,56.058 62.58,56.058 25.6,0 41.99,-13.429 41.99,-39.898 0,-6.293 -1.06,-12.383 -2.11,-18.684" /><path
         id="path44"
         style="fill:#ed1c24;fill-opacity:1;fill-rule:nonzero;stroke:none"
         d="m 4168.69,119.672 c -16.16,0 -28.97,13.437 -28.97,29.398 0,15.95 12.81,29.391 28.97,29.391 15.95,0 28.77,-13.652 28.77,-29.391 0,-15.75 -12.82,-29.398 -28.77,-29.398" /><path
         id="path46"
         style="fill:#ed1c24;fill-opacity:1;fill-rule:nonzero;stroke:none"
         d="m 4408.71,208.27 -3.15,-17.43 c -0.21,-1.68 -0.84,-3.77 -2.93,-3.77 -1.48,0 -2.73,1.051 -4,1.68 -8.81,5.039 -17.42,7.969 -27.72,7.969 -9.24,0 -21.4,-3.77 -21.4,-14.899 0,-17.218 46.19,-22.261 46.19,-56.48 0,-34.6408 -28.15,-49.34 -59.22,-49.34 -11.76,0 -23.71,1.6797 -34.63,6.5 -2.32,1.0586 -4.41,1.4805 -4.41,4.4219 0,0.6172 0,1.2578 0.21,1.8867 l 2.93,17.0004 c 0.22,1.48 1.47,3.363 3.15,3.363 1.48,0 2.52,-1.043 3.57,-1.883 8.18,-6.098 21.84,-8.6093 31.91,-8.6093 10.92,0 23.73,3.3513 23.73,16.7893 0,6.511 -5.03,9.242 -9.45,12.812 l -22.24,17.211 c -9.05,7.149 -14.09,16.797 -14.09,28.348 0,2.519 0.22,5.039 0.65,7.558 5.45,29.391 30.23,38 57.11,38 5.23,0 34,-1.886 34,-8.609 0,-0.84 0,-1.68 -0.21,-2.519" /><path
         id="path48"
         style="fill:#ed1c24;fill-opacity:1;fill-rule:nonzero;stroke:none"
         d="M 4525.68,178.68 4479.27,86.2891 C 4476.54,81.0391 4475.7,76 4468.57,76 l -23.11,0 c -6.5,0 -6.07,4.4102 -6.91,9.4492 l -14.28,94.2698 c 0,0.422 0,1.043 0,1.472 0,2.52 1.47,3.149 3.56,3.149 l 26.68,0 c 1.25,0 2.09,-0.629 2.3,-1.899 l 7.97,-80.41 36.33,80.41 c 0.43,1.059 1.89,1.899 2.95,1.899 l 20.35,0 c 0.84,0 2.95,-0.219 2.95,-1.258 0,-1.051 -1.27,-3.57 -1.68,-4.402" /><path
         id="path50"
         style="fill:#ed1c24;fill-opacity:1;fill-rule:nonzero;stroke:none"
         d="m 4571.05,198.398 c -9.24,0 -17.64,3.582 -17.64,14.071 0,10.5 9.46,13.863 18.48,13.863 8.83,0 17.23,-4.203 17.23,-14.062 0,-10.508 -9.05,-13.872 -18.07,-13.872 z m 10.51,-16.796 -17.44,-101.1918 c -0.2,-1.4688 -1.68,-2.7305 -3.15,-2.7305 l -26.03,0 c -1.25,0 -2.52,1.0508 -2.31,2.3008 l 0,0.4297 17.42,101.1918 c 0.22,1.48 1.9,2.738 3.36,2.738 l 26.04,0 c 1.27,0 2.11,-0.84 2.11,-2.098 0,-0.211 0,-0.422 0,-0.64" /><path
         id="path52"
         style="fill:#ed1c24;fill-opacity:1;fill-rule:nonzero;stroke:none"
         d="m 4695.15,181.602 -2.3,-14.27 c 0,-0.633 -0.63,-1.684 -1.06,-2.094 l -62.56,-66.5583 51.02,0 c 1.25,0 2.3,-1.0586 2.3,-2.3086 0,-2.9492 -2.09,-12.6016 -2.73,-15.9609 -0.2,-1.4688 -1.68,-2.7305 -3.15,-2.7305 l -82.71,0 c -1.27,0 -2.32,1.0508 -2.32,2.3008 0,1.0586 2.11,16.6015 3.36,17.2304 l 60.27,66.1291 -44.51,0 c -1.27,0 -2.11,0.84 -2.11,2.101 0,2.938 1.89,12.598 2.52,16.161 0.21,1.48 2.11,2.738 3.36,2.738 l 78.53,0 c 1.25,0 2.09,-0.84 2.09,-2.098 0,-0.211 0,-0.422 0,-0.64" /><path
         id="path54"
         style="fill:#ed1c24;fill-opacity:1;fill-rule:nonzero;stroke:none"
         d="m 4803.08,181.602 -2.3,-14.27 c 0,-0.633 -0.63,-1.684 -1.06,-2.094 l -62.56,-66.5583 51.02,0 c 1.25,0 2.3,-1.0586 2.3,-2.3086 0,-2.9492 -2.09,-12.6016 -2.73,-15.9609 -0.2,-1.4688 -1.68,-2.7305 -3.15,-2.7305 l -82.71,0 c -1.27,0 -2.32,1.0508 -2.32,2.3008 0,1.0586 2.1,16.6015 3.35,17.2304 l 60.28,66.1291 -44.51,0 c -1.27,0 -2.11,0.84 -2.11,2.101 0,2.938 1.89,12.598 2.52,16.161 0.21,1.48 2.11,2.738 3.36,2.738 l 78.53,0 c 1.25,0 2.09,-0.84 2.09,-2.098 0,-0.211 0,-0.422 0,-0.64" /><path
         id="path56"
         style="fill:#ed1c24;fill-opacity:1;fill-rule:nonzero;stroke:none"
         d="m 4873.02,166.922 c -6.09,0 -12.19,-1.902 -16.79,-6.102 -4.83,-4.41 -6.31,-10.289 -7.15,-16.578 l 40.31,0 c 0.43,2.727 1.05,5.449 1.05,7.969 0,10.289 -8.18,14.711 -17.42,14.711 z m 44.73,-39.274 c -0.22,-1.468 -1.68,-2.718 -3.17,-2.718 l -68.65,0 c -0.62,-2.739 -1.05,-5.469 -1.05,-8.399 0,-14.711 12.4,-19.531 25.19,-19.531 11.76,0 21.84,2.9297 32.35,8.609 0.84,0.411 1.68,1.039 2.73,1.039 1.47,0 2.31,-0.628 2.31,-2.097 0,-3.36 -2.11,-11.7502 -2.74,-15.5315 -0.84,-4.1992 -2.3,-4.8398 -5.88,-6.5195 -10.92,-5.0391 -27.28,-6.5 -39.26,-6.5 -13.65,0 -27.3,1.6797 -36.73,12.8086 -6.53,7.7734 -8.83,17.6404 -8.83,27.5004 0,4.621 0.43,9.242 1.27,13.863 6.29,34.43 26.23,56.058 62.56,56.058 25.62,0 41.99,-13.429 41.99,-39.898 0,-6.293 -1.06,-12.383 -2.09,-18.684" /><path
         id="path58"
         style="fill:#ed1c24;fill-opacity:1;fill-rule:nonzero;stroke:none"
         d="m 5018.75,162.5 c -0.42,-2.102 -1.25,-4.41 -3.77,-4.41 -0.84,0 -1.47,0.211 -2.31,0.43 -5.25,1.46 -10.72,2.3 -16.17,2.3 -11.97,0 -16.58,-3.98 -18.69,-15.738 l -11.14,-64.6718 c -0.19,-1.4688 -1.67,-2.7305 -3.14,-2.7305 l -26.03,0 c -1.25,0 -2.52,1.0508 -2.31,2.3008 l 0,0.4297 17.42,101.1918 c 0.22,1.48 1.9,2.738 3.36,2.738 l 23.95,0 c 1.68,0 2.09,-0.84 2.09,-2.309 0,-1.269 -0.22,-2.519 -0.41,-3.781 l 0.62,0 c 2.74,0 4.2,0.629 6.72,1.68 9.02,3.57 15.12,4.41 24.77,4.41 3.36,0 7.98,0.211 7.98,-4.41 0,-3.989 -2.11,-13.008 -2.94,-17.43" /><path
         id="path60"
         style="fill:#ed1c24;fill-opacity:1;fill-rule:nonzero;stroke:none"
         d="m 5069.57,125.551 c -8.83,-3.571 -15.77,-7.34 -15.77,-18.063 0,-7.7575 6.1,-10.488 13.03,-10.488 10.49,0 17.01,4.191 18.89,14.898 l 3.57,21.211 c -6.5,-2.519 -13.22,-4.828 -19.72,-7.558 z m 55,28.969 -12.82,-74.1098 c -0.19,-1.4688 -1.68,-2.7305 -3.14,-2.7305 l -23.93,0 c -1.68,0 -2.32,0.8398 -2.32,2.3008 0,1.0586 0.21,2.1093 0.43,2.9492 l -0.84,0 c -2.52,0 -6.94,-1.8906 -9.24,-2.9492 C 5065.37,76.8398 5059.68,76 5051.93,76 c -15.96,0 -30.67,5.8789 -30.67,24.141 0,2.308 0.22,4.629 0.63,6.929 1.89,11.141 7.56,20.578 17.23,26.461 14.27,8.598 30.86,11.961 46.6,16.59 4.41,1.25 6.72,1.891 7.77,6.719 0,0.41 0.22,1.039 0.22,1.461 0,7.14 -11.14,6.937 -15.96,6.937 -13.22,0 -23.3,-2.738 -35.06,-8.617 -1.05,-0.621 -2.11,-1.051 -3.36,-1.051 -1.68,0 -2.11,1.051 -2.11,2.52 0,3.57 1.9,12.191 2.52,15.961 0.63,3.148 1.68,3.789 4.42,5.039 11.54,5.25 26.87,7.14 39.68,7.14 17.21,0 41.35,-3.148 41.35,-25.41 0,-2.101 -0.19,-4.199 -0.62,-6.3" /><path
         id="path62"
         style="fill:#ed1c24;fill-opacity:1;fill-rule:nonzero;stroke:none"
         d="m 625.219,655.852 80.551,0 0,80.558 72.914,0 0,-80.558 80.562,0 0,-72.922 -80.562,0 0,-80.52 -72.914,0 0,80.52 -80.551,0 0,72.922 z M 441.254,637.41 c -51.606,0 -98.102,15.922 -116.914,57.34 C 214.859,665.34 109.309,634.352 7.9375,601.699 39.6055,476.602 163.617,434.031 296.891,434.031 c 75.25,0 130.179,8.199 201.347,38.61 22.336,10.211 65.059,28.539 89.52,28.539 l 8.094,0 c -2.012,-8.188 -4.098,-18.328 -4.098,-28.539 0,-14.243 6.101,-22.289 22.34,-22.289 l 231.875,0 c 14.234,0 28.418,12.207 30.48,26.449 l 61.68,356.679 C 829.84,813.168 724.246,791.215 621.352,767.949 599.996,674.539 538.238,637.41 441.254,637.41 Z M 6.14844,735 C 2.0625,712.648 0,690.289 0,667.852 0,661.23 0.558594,655.121 0.984375,648.871 101.816,681.191 206.672,712 315.316,741.059 c 0.899,102.089 67.571,138.632 152.36,172.851 63.082,26.528 128.176,48.895 191.203,73.27 L 630.398,818.168 c 102.747,22.969 208.235,44.551 316.227,64.668 L 990.93,1139.04 C 648.336,1070.88 334.746,982.797 59.3555,878.676 32.8242,836.039 15.043,787.445 6.14844,735 Z M 606.008,1550.4 c -124.055,0 -272.488,-18.26 -384.383,-69.1 -26.406,-12.15 -36.586,-18.33 -42.656,-48.89 -6.117,-36.46 -24.414,-119.83 -24.414,-154.52 0,-14.24 4.043,-24.38 20.347,-24.38 12.188,0 22.364,4.07 32.465,10.14 113.949,57.02 211.543,83.49 339.637,83.49 46.836,0 154.543,1.93 154.543,-67.13 0,-4.14 -2,-10.24 -2,-14.28 -10.172,-46.78 -32.574,-52.84 -75.277,-64.99 -152.457,-44.8 -313.161,-77.33 -451.418,-160.71 -19.926,-12.15 -37.731,-26.1 -54.196,-41.276 C 95.5234,977.469 75.6602,953.738 59.3555,927.5 334.746,1031.55 648.336,1119.63 990.93,1187.79 l 8.519,49.33 1.091,6.22 c 4.01,20.31 6.12,40.74 6.12,61.04 0,215.53 -233.906,246.02 -400.652,246.02" /></g></g></svg>